<svg width="740" height="200" viewBox="0 0 740 200" fill="none" xmlns="http://www.w3.org/2000/svg">
<path d="M75.056 69.816L49.968 134.072H99.632L75.056 69.816ZM68.656 192.184V195H0.56V192.184C17.968 188.088 27.184 172.472 40.496 138.68L89.648 13.496H109.872L168.496 161.976C176.432 181.944 184.624 188.6 194.096 192.184V195H96.816V192.184C113.712 188.088 118.32 182.712 104.24 145.848L102.192 140.728H47.664C38.192 171.448 47.664 188.088 68.656 192.184ZM266.502 199.864C249.35 199.864 237.062 192.44 230.406 184.76L212.486 198.072H209.414V35.512C209.414 21.432 202.246 18.616 195.59 18.616V15.8L256.262 0.951996L258.31 1.71999V89.784C268.55 78.52 279.046 72.376 293.382 72.376C321.286 72.376 337.158 95.416 337.158 125.112C337.158 169.4 300.806 199.864 266.502 199.864ZM267.526 195C277.51 195 288.006 176.568 288.006 140.216C288.006 108.728 278.278 95.928 265.222 95.928C262.918 95.928 260.614 96.44 258.31 97.464V179.64C258.31 190.392 262.406 195 267.526 195ZM417.478 199.864C378.822 199.864 350.406 171.704 350.406 136.632C350.406 101.816 380.87 72.376 417.478 72.376C457.414 72.376 484.55 101.048 484.55 136.12C484.55 169.144 455.878 199.864 417.478 199.864ZM399.558 135.352C399.558 174.008 406.214 195 417.478 195C425.926 195 434.886 183.736 434.886 136.632C434.886 97.72 428.23 77.496 416.454 77.496C408.006 77.496 399.558 89.528 399.558 135.352ZM580.338 198.328V180.152C567.282 192.696 551.41 199.864 537.842 199.864C520.434 199.864 507.122 188.856 507.122 166.328V108.472C507.122 94.392 499.442 91.064 493.042 91.576V89.272L553.97 72.632L556.018 73.4V167.096C556.018 174.776 560.626 179.128 567.282 179.128C570.61 179.128 574.962 177.848 579.57 174.52V108.472C579.57 96.44 575.218 91.32 569.074 91.576V89.272L626.418 72.632L628.466 73.4V170.424C628.466 185.272 635.634 189.368 641.522 188.856V191.672L582.386 199.096L580.338 198.328ZM735.118 82.872H709.518V156.344C709.518 167.608 715.662 173.496 722.318 173.496C727.694 173.496 732.302 170.936 736.142 165.304L739.47 167.352C730.254 184.76 712.59 199.352 692.366 199.352C673.422 199.352 660.878 186.808 660.878 168.632V83.384H647.822V80.568C669.582 74.168 696.462 46.776 705.678 22.712H709.518V76.984H735.118V82.872Z" fill="#FEF9F9" fill-opacity="0.1"/>
</svg>
