<?xml version="1.0" encoding="utf-8"?>
<!-- Generator: Adobe Illustrator 27.9.0, SVG Export Plug-In . SVG Version: 6.00 Build 0)  -->
<svg version="1.1" id="Layer_1" xmlns="http://www.w3.org/2000/svg" xmlns:xlink="http://www.w3.org/1999/xlink" x="0px" y="0px"
	 viewBox="0 0 232.3 357.8" style="enable-background:new 0 0 232.3 357.8;" xml:space="preserve">
<path d="M231.9,15.3c-6,12.2-12.7,24.8-20.1,37.9c-7.4,13.1-15.5,26.6-24.3,40.4c-17.6,27.5-37.2,50.4-52.4,72.7
	c-8.2,12.1-6.5,17.6-7.2,28.6l-0.6,51.3c0.1,8.6,0,26.9,0.7,42.2c36.7,2.6,64.8,17,64.8,34.5c0,19.3-34.3,34.9-76.6,34.9
	s-76.6-15.6-76.6-34.9c0-17.4,28.1-31.9,64.8-34.5c0.7-15.3,0.6-33.6,0.7-42.2l-0.6-51.3c-0.7-11,1.1-16.5-7.2-28.6
	C82,143.9,62.4,121,44.8,93.6c-8.9-13.8-16.9-27.3-24.3-40.4C13.1,40.1,6.4,27.4,0.4,15.3C-5.9,3,65.1,0,116.2,0S238.2,3,231.9,15.3
	z"/>
</svg>
