<svg width="1014" height="201" viewBox="0 0 1014 201" fill="none" xmlns="http://www.w3.org/2000/svg">
<path d="M153.768 74.168L148.648 73.656C141.224 33.464 119.464 17.336 101.288 17.336C76.2 17.336 56.232 48.824 56.232 92.856C56.232 146.616 81.576 171.192 114.6 171.192C135.592 171.192 152.744 161.464 161.448 142.52L166.056 144.056C155.56 180.664 124.84 200.12 91.048 200.12C37.8 200.12 0.424 157.368 0.424 108.216C0.424 52.664 42.408 10.424 107.176 10.424C131.24 10.424 153 14.52 167.08 21.176L153.768 74.168ZM252.228 199.864C213.572 199.864 185.156 171.704 185.156 136.632C185.156 101.816 215.62 72.376 252.228 72.376C292.164 72.376 319.3 101.048 319.3 136.12C319.3 169.144 290.628 199.864 252.228 199.864ZM234.308 135.352C234.308 174.008 240.964 195 252.228 195C260.676 195 269.636 183.736 269.636 136.632C269.636 97.72 262.98 77.496 251.204 77.496C242.756 77.496 234.308 89.528 234.308 135.352ZM411.504 103.864C407.92 94.904 406.896 77.496 397.424 77.496C390 77.496 382.576 89.272 382.576 118.968C382.576 153.528 395.12 171.704 417.136 171.704C430.192 171.704 440.944 165.048 447.856 151.992L451.696 153.528C443.76 183.992 422.768 199.864 393.328 199.864C361.328 199.864 332.656 175.8 332.656 138.68C332.656 101.304 362.608 72.376 402.8 72.376C433.776 72.376 447.856 86.712 447.856 99.768C447.856 108.984 441.2 116.408 429.68 116.408C420.72 116.408 414.576 111.8 411.504 103.864ZM518.78 1.71999V176.056C518.78 188.6 526.716 191.928 532.348 192.696V195H458.62V192.696C464.252 191.928 469.884 187.576 469.884 176.056V35.512C469.884 21.432 463.228 18.36 456.06 18.616V15.8L516.732 0.951996L518.78 1.71999ZM616.828 195H554.876L524.924 141.24V139.96L549.756 114.872C568.188 96.44 560.764 80.824 548.22 79.8V76.984H611.196V79.8C597.628 81.08 582.524 90.552 562.044 111.8L591.484 163C603.26 182.968 611.452 191.16 616.828 192.44V195ZM706.868 82.872H681.268V156.344C681.268 167.608 687.412 173.496 694.068 173.496C699.444 173.496 704.052 170.936 707.892 165.304L711.22 167.352C702.004 184.76 684.34 199.352 664.116 199.352C645.172 199.352 632.628 186.808 632.628 168.632V83.384H619.572V80.568C641.332 74.168 668.212 46.776 677.428 22.712H681.268V76.984H706.868V82.872ZM775.744 179.896C779.072 179.896 781.888 179.128 784.96 177.08C784.192 173.752 783.936 169.912 783.936 165.816V128.184C766.272 134.328 759.616 146.36 759.616 160.184C759.616 173.752 767.296 179.896 775.744 179.896ZM812.864 199.608C799.552 199.608 790.336 194.488 786.24 182.712C775.744 193.464 760.384 199.864 747.072 199.864C731.712 199.864 716.608 190.392 716.608 172.216C716.608 153.784 730.944 136.632 783.936 123.576V93.88C783.936 80.568 780.864 76.728 774.208 76.728C762.432 76.728 768.832 92.088 762.944 104.888C758.848 114.104 750.656 118.2 742.464 118.2C731.968 118.2 723.776 111.032 723.776 100.28C723.776 84.664 740.16 72.376 776.256 72.376C814.144 72.376 833.088 89.528 833.088 113.848V174.52C833.088 178.616 835.904 181.688 840 181.688C843.072 181.688 846.656 179.896 849.472 176.056L852.288 178.104C845.632 190.648 830.528 199.608 812.864 199.608ZM864.806 35C864.806 19.896 877.606 7.60799 892.454 7.60799C907.302 7.60799 920.102 19.64 920.102 35C920.102 50.104 907.302 62.392 892.454 62.392C877.606 62.392 864.806 50.36 864.806 35ZM930.854 195H856.358V192.44C862.502 191.672 868.902 187.064 868.902 175.8V108.728C868.902 94.904 860.198 91.32 853.03 91.832V89.272L916.006 72.632L918.054 73.4L917.542 107.704V175.8C917.542 187.064 924.71 191.672 930.854 192.44V195ZM999.78 1.71999V175.8C999.78 187.064 1006.69 191.672 1013.09 192.44V195H939.108V192.44C944.74 191.672 950.884 187.064 950.884 175.8V35.512C950.884 21.432 944.228 18.36 937.06 18.616V15.8L997.732 0.951996L999.78 1.71999Z" fill="#FEF9F9" fill-opacity="0.1"/>
</svg>
