<svg width="666" height="655" viewBox="0 0 666 655" fill="none" xmlns="http://www.w3.org/2000/svg">
<path fill-rule="evenodd" clip-rule="evenodd" d="M361.49 0.00555878C424.552 -0.379726 492.018 19.2453 535.9 64.5363C578.075 108.065 563.314 180.344 589.281 235.109C612.422 283.914 678.88 312.611 679.136 366.624C679.392 420.603 624.216 456.684 590.529 498.861C561.44 535.281 533.558 571.623 494.764 597.463C454.184 624.492 409.845 645.16 361.49 651.419C309.128 658.197 256.691 651.7 206.686 634.752C149.053 615.218 87.1351 594.796 50.6764 546.073C13.1081 495.866 -12.1759 426.622 6.05255 366.624C24.4221 306.162 110.631 294.74 143.443 240.735C175.097 188.638 147.381 111.841 188.305 66.66C230.551 20.0199 298.563 0.390021 361.49 0.00555878Z" fill="#7F755A" fill-opacity="0.35"/>
</svg>
