<svg width="60" height="696" viewBox="0 0 60 696" fill="none" xmlns="http://www.w3.org/2000/svg">
<path d="M52.5 12.6667C49.5545 12.6667 47.1667 15.0545 47.1667 18C47.1667 20.9455 49.5545 23.3333 52.5 23.3333C55.4455 23.3333 57.8333 20.9455 57.8333 18C57.8333 15.0545 55.4455 12.6667 52.5 12.6667ZM52.5 673.667C49.5545 673.667 47.1667 676.055 47.1667 679C47.1667 681.946 49.5545 684.333 52.5 684.333C55.4455 684.333 57.8333 681.946 57.8333 679C57.8333 676.055 55.4455 673.667 52.5 673.667ZM51.5 18L51.5 679H53.5L53.5 18H51.5Z" fill="#FEF9F9"/>
<circle cx="52.5" cy="184.5" r="5.5" fill="#FEF9F9"/>
<path d="M58 350.5C58 353.538 55.5376 356 52.5 356C49.4624 356 47 353.538 47 350.5C47 347.462 49.4624 345 52.5 345C55.5376 345 58 347.462 58 350.5Z" fill="#FEF9F9"/>
<path d="M58 515.5C58 518.538 55.5376 521 52.5 521C49.4624 521 47 518.538 47 515.5C47 512.462 49.4624 510 52.5 510C55.5376 510 58 512.462 58 515.5Z" fill="#FEF9F9"/>
<path d="M6.8595 28.336C3.4995 28.336 1.3635 25.288 1.3635 19.144C1.3635 13.048 3.4995 10.096 6.8595 10.096C10.1715 10.096 12.3075 13.048 12.3075 19.144C12.3075 25.288 10.1715 28.336 6.8595 28.336ZM6.8595 26.56C8.8515 26.56 10.1955 24.328 10.1955 19.144C10.1955 14.032 8.8515 11.848 6.8595 11.848C4.8435 11.848 3.4755 14.032 3.4755 19.144C3.4755 24.328 4.8435 26.56 6.8595 26.56ZM15.612 28V26.176H19.524V13.072H16.38V11.656C17.964 11.392 19.092 10.984 20.028 10.408H21.708V26.176H25.26V28H15.612Z" fill="#FEF9F9"/>
<path d="M6.8595 195.336C3.4995 195.336 1.3635 192.288 1.3635 186.144C1.3635 180.048 3.4995 177.096 6.8595 177.096C10.1715 177.096 12.3075 180.048 12.3075 186.144C12.3075 192.288 10.1715 195.336 6.8595 195.336ZM6.8595 193.56C8.8515 193.56 10.1955 191.328 10.1955 186.144C10.1955 181.032 8.8515 178.848 6.8595 178.848C4.8435 178.848 3.4755 181.032 3.4755 186.144C3.4755 191.328 4.8435 193.56 6.8595 193.56ZM14.556 195V193.728C20.076 188.904 22.596 185.376 22.596 182.376C22.596 180.36 21.564 178.872 19.38 178.872C17.94 178.872 16.692 179.76 15.708 180.912L14.436 179.688C15.876 178.128 17.412 177.096 19.644 177.096C22.788 177.096 24.756 179.136 24.756 182.28C24.756 185.808 21.996 189.384 17.844 193.296C18.78 193.2 19.836 193.128 20.724 193.128H25.596V195H14.556Z" fill="#FEF9F9"/>
<path d="M6.8595 361.336C3.4995 361.336 1.3635 358.288 1.3635 352.144C1.3635 346.048 3.4995 343.096 6.8595 343.096C10.1715 343.096 12.3075 346.048 12.3075 352.144C12.3075 358.288 10.1715 361.336 6.8595 361.336ZM6.8595 359.56C8.8515 359.56 10.1955 357.328 10.1955 352.144C10.1955 347.032 8.8515 344.848 6.8595 344.848C4.8435 344.848 3.4755 347.032 3.4755 352.144C3.4755 357.328 4.8435 359.56 6.8595 359.56ZM19.812 361.336C17.052 361.336 15.348 360.184 14.196 358.912L15.3 357.472C16.332 358.552 17.652 359.512 19.668 359.512C21.756 359.512 23.244 358.24 23.244 356.224C23.244 354.112 21.828 352.72 17.772 352.72V351.016C21.396 351.016 22.62 349.576 22.62 347.656C22.62 345.976 21.492 344.872 19.668 344.872C18.252 344.872 17.004 345.592 16.02 346.6L14.844 345.184C16.164 343.984 17.724 343.096 19.74 343.096C22.692 343.096 24.852 344.704 24.852 347.512C24.852 349.648 23.604 351.064 21.732 351.736V351.832C23.796 352.336 25.476 353.896 25.476 356.32C25.476 359.44 22.956 361.336 19.812 361.336Z" fill="#FEF9F9"/>
<path d="M6.8595 526.336C3.4995 526.336 1.3635 523.288 1.3635 517.144C1.3635 511.048 3.4995 508.096 6.8595 508.096C10.1715 508.096 12.3075 511.048 12.3075 517.144C12.3075 523.288 10.1715 526.336 6.8595 526.336ZM6.8595 524.56C8.8515 524.56 10.1955 522.328 10.1955 517.144C10.1955 512.032 8.8515 509.848 6.8595 509.848C4.8435 509.848 3.4755 512.032 3.4755 517.144C3.4755 522.328 4.8435 524.56 6.8595 524.56ZM21.636 526V514.024C21.636 513.136 21.708 511.72 21.78 510.808H21.66C21.228 511.672 20.748 512.56 20.268 513.424L16.26 519.424H26.052V521.152H13.956V519.712L21.276 508.408H23.7V526H21.636Z" fill="#FEF9F9"/>
<path d="M6.8595 689.336C3.4995 689.336 1.3635 686.288 1.3635 680.144C1.3635 674.048 3.4995 671.096 6.8595 671.096C10.1715 671.096 12.3075 674.048 12.3075 680.144C12.3075 686.288 10.1715 689.336 6.8595 689.336ZM6.8595 687.56C8.8515 687.56 10.1955 685.328 10.1955 680.144C10.1955 675.032 8.8515 672.848 6.8595 672.848C4.8435 672.848 3.4755 675.032 3.4755 680.144C3.4755 685.328 4.8435 687.56 6.8595 687.56ZM19.764 689.336C17.028 689.336 15.348 688.184 14.148 686.984L15.252 685.544C16.236 686.576 17.532 687.512 19.548 687.512C21.636 687.512 23.292 685.904 23.292 683.36C23.292 680.84 21.852 679.328 19.668 679.328C18.492 679.328 17.748 679.712 16.74 680.384L15.564 679.64L16.116 671.408H24.684V673.28H18.036L17.58 678.368C18.372 677.936 19.164 677.672 20.22 677.672C23.148 677.672 25.524 679.4 25.524 683.288C25.524 687.128 22.716 689.336 19.764 689.336Z" fill="#FEF9F9"/>
</svg>
