<svg width="268" height="50" viewBox="0 0 268 50" fill="none" xmlns="http://www.w3.org/2000/svg">
<path d="M0.768 7.632H15.232V8.816H0.768V7.632ZM4.4 17.008H11.536V18.192H4.4V17.008ZM4.4 12.304H11.536V13.472H4.4V12.304ZM3.728 4.64H4.992V19.28H3.728V4.64ZM11.008 4.64H12.288V19.184H11.008V4.64Z" fill="#FEF9F9"/>
<path d="M254 6.608H266.128V7.728H254V6.608ZM252.864 10.72H267.136V11.856H252.864V10.72ZM253.632 14.352H266.464V15.504H253.632V14.352ZM259.328 4.56H260.576V7.088H259.328V4.56ZM259.328 11.808H260.576V19.296H259.328V11.808ZM256.144 8.128L257.2 7.776C257.696 8.576 258.224 9.616 258.416 10.288L257.296 10.688C257.104 10.016 256.608 8.928 256.144 8.128ZM262.944 7.712L264.208 8.048C263.68 9.104 263.04 10.352 262.496 11.136L261.472 10.832C261.984 10 262.608 8.656 262.944 7.712Z" fill="#FEF9F9"/>
<path d="M10.6667 38C10.6667 40.9455 13.0545 43.3333 16 43.3333C18.9455 43.3333 21.3333 40.9455 21.3333 38C21.3333 35.0545 18.9455 32.6667 16 32.6667C13.0545 32.6667 10.6667 35.0545 10.6667 38ZM246.667 38C246.667 40.9455 249.054 43.3333 252 43.3333C254.946 43.3333 257.333 40.9455 257.333 38C257.333 35.0545 254.946 32.6667 252 32.6667C249.054 32.6667 246.667 35.0545 246.667 38ZM16 39H252V37H16V39Z" fill="#FEF9F9"/>
<circle cx="134" cy="38" r="5" fill="#FEF9F9"/>
<circle cx="73" cy="38" r="5" fill="#FEF9F9"/>
<circle cx="192.5" cy="37.5" r="12.5" fill="#FEF9F9"/>
</svg>
