<svg width="1220" height="1139" viewBox="0 0 1220 1139" fill="none" xmlns="http://www.w3.org/2000/svg">
<path fill-rule="evenodd" clip-rule="evenodd" d="M726.438 2.78409C832.333 24.3413 884.342 140.851 960.092 217.904C1048.11 307.431 1176.98 370.095 1207.27 491.881C1238.51 617.484 1206.88 765.942 1120.32 862.144C1036.42 955.399 892.116 948.566 770.064 977.792C680.123 999.328 590.434 990.342 500.204 1010.63C362.157 1041.68 234.889 1174.92 101.3 1128.19C-27.2053 1083.24 -104.93 929.469 -118.761 794.12C-131.987 664.686 -4.2124 567.572 31.2231 442.403C63.0296 330.052 -12.6194 177.033 77.1024 102.27C169.346 25.4048 311.379 128.206 430.114 110.015C536.107 93.7752 621.346 -18.6098 726.438 2.78409Z" fill="#392A2B" fill-opacity="0.5"/>
</svg>
