<svg width="636" height="191" viewBox="0 0 636 191" fill="none" xmlns="http://www.w3.org/2000/svg">
<path d="M141.992 129.448C141.992 161.192 113.32 190.632 66.472 190.632C39.848 190.632 14.76 185.512 0.168 178.088L11.688 122.792L16.808 123.304C28.328 175.016 51.88 185 70.312 185C89.768 185 102.056 174.504 102.056 161.192C102.056 140.712 76.2 131.24 51.112 118.696C26.536 106.664 2.472 91.816 2.472 61.864C2.472 27.56 29.864 0.423996 75.176 0.423996C97.192 0.423996 117.16 5.032 133.288 12.2L118.952 60.84L113.832 60.328C107.176 24.488 95.656 6.05598 72.104 6.05598C52.392 6.05598 40.872 16.296 40.872 30.632C40.872 51.88 64.168 60.584 88.232 70.824C114.6 81.832 141.992 95.144 141.992 129.448ZM240.868 72.872H215.268V146.344C215.268 157.608 221.412 163.496 228.068 163.496C233.444 163.496 238.052 160.936 241.892 155.304L245.22 157.352C236.004 174.76 218.34 189.352 198.116 189.352C179.172 189.352 166.628 176.808 166.628 158.632V73.384H153.572V70.568C175.332 64.168 202.212 36.776 211.428 12.712H215.268V66.984H240.868V72.872ZM317.228 189.864C278.572 189.864 250.156 161.704 250.156 126.632C250.156 91.816 280.62 62.376 317.228 62.376C357.164 62.376 384.3 91.048 384.3 126.12C384.3 159.144 355.628 189.864 317.228 189.864ZM299.308 125.352C299.308 164.008 305.964 185 317.228 185C325.676 185 334.636 173.736 334.636 126.632C334.636 87.72 327.98 67.496 316.204 67.496C307.756 67.496 299.308 79.528 299.308 125.352ZM470.616 182.696V185H395.096V182.696C401.496 181.928 408.152 177.576 408.152 166.056V98.472C408.152 84.392 399.704 81.32 392.536 81.832V79.272L454.232 62.632L456.28 63.4V90.536C464.216 67.24 480.344 58.28 493.4 58.28C505.944 58.28 513.624 67.24 513.624 78.248C513.624 90.024 504.92 99.752 493.144 99.752C480.344 99.752 477.016 87.976 467.544 87.976C461.144 87.976 458.584 93.096 456.792 102.568V166.568C456.792 177.832 464.472 181.928 470.616 182.696ZM635.696 142.76C628.784 171.176 606 189.864 577.584 189.864C544.816 189.864 516.656 164.008 516.656 128.424C516.656 91.816 545.584 62.376 580.912 62.376C612.912 62.376 634.16 82.6 635.696 118.696H564.784C566.832 148.392 581.168 161.96 600.368 161.96C613.424 161.96 624.688 154.792 631.6 141.736L635.696 142.76ZM564.528 110.76V112.808H592.944C594.48 79.784 589.616 66.984 582.192 66.984C574.256 66.984 564.528 82.856 564.528 110.76Z" fill="#FEF9F9" fill-opacity="0.1"/>
</svg>
