<?xml version="1.0" encoding="UTF-8"?>
<svg id="Layer_1" data-name="Layer 1" xmlns="http://www.w3.org/2000/svg" viewBox="0 0 181.4 419.41">
  <defs>
    <style>
      .cls-1 {
        stroke-width: 0px;
      }
    </style>
  </defs>
  <path class="cls-1" d="m105.05,272.27c-.36,4.99-.61,10.71-.61,17.07,0,15.87,1.57,35.75,6.98,58.46,30.62,4.43,52.98,18.46,52.98,35.07,0,20.18-33,36.54-73.7,36.54s-73.7-16.36-73.7-36.54c0-16.61,22.36-30.64,52.98-35.07,5.41-22.71,6.98-42.59,6.98-58.46,0-6.36-.25-12.08-.61-17.07-1.28-17.87-.18-33.6-10.51-48.54-12.49-18.08-21.89-24.22-36.02-41.53C7.6,154.99,4,123.69,1.29,100.14-3.72,56.51,6.98,21.8,13.85,4.14,45.97,0,71.31.21,90.5,0h.4c19.19.21,44.53,0,76.65,4.14,6.87,17.66,17.57,52.37,12.56,96-2.71,23.55-6.31,54.85-28.53,82.06-14.13,17.31-23.53,23.45-36.02,41.53-10.33,14.94-9.23,30.67-10.51,48.54Z"/>
</svg>